<?xml version="1.0" encoding="UTF-8"?>
<svg id="Vrstva_1" data-name="Vrstva 1" xmlns="http://www.w3.org/2000/svg" viewBox="0 0 945.99 266.08">
  <defs>
    <style>
      .cls-1 {
        fill: #fff;
        stroke-width: 0px;
      }
    </style>
  </defs>
  <g>
    <path class="cls-1" d="M268.13,31.36l-12.09,10.9c-5.52-11.79-13.14-17.02-27.17-17.02s-21.65,6.27-21.65,14.63c0,7.91,6.12,12.1,25.23,15.53,26.43,4.63,36.13,12.84,36.13,28.67,0,17.62-15.98,28.82-39.27,28.82-21.5,0-34.79-7.77-42.41-20.01l11.2-11.2c6.42,11.95,16.27,17.32,31.06,17.32s22.7-4.93,22.7-14.04c0-7.02-5.97-11.05-24.49-14.48-27.03-5.08-37.03-13.29-37.03-28.97,0-16.72,14.33-30.16,38.37-30.16,18.22,0,30.76,6.57,39.42,20.01Z"/>
    <path class="cls-1" d="M329.65,106.46c-4.78,4.03-11.8,6.42-19.86,6.42-12.84,0-22.7-5.82-22.85-21.2v-42.41h-14.18v-12.54h14.18v-17.47l15.98-4.48v21.95h26.13v12.54h-26.13v39.72c0,7.32,4.33,10.6,10.9,10.6,5.08,0,8.81-1.79,12.09-4.78l3.73,11.65Z"/>
    <path class="cls-1" d="M404.75,36.73v74.66h-14.18l-.75-12.09c-5.08,9.41-14.33,13.59-26.43,13.59-14.93,0-26.88-7.61-26.88-27.03v-49.12h15.98v44.94c0,13.89,5.97,18.07,15.38,18.07,11.35,0,20.9-6.87,20.9-22.7v-40.31h15.98Z"/>
    <path class="cls-1" d="M491.2,3.14v108.25h-14.04l-.9-13.44c-4.33,8.81-13.44,14.93-25.23,14.93-20.31,0-33-14.33-33-38.67s12.84-38.97,33.15-38.97c11.05,0,19.56,5.37,24.04,13.59V3.14h15.98ZM475.22,74.96v-1.79c0-15.53-8.06-24.94-20.6-24.94s-20.61,9.56-20.61,25.83,7.76,25.98,20.61,25.98,20.6-9.41,20.6-25.08Z"/>
    <path class="cls-1" d="M574.67,80.03h-54.65c1.79,13.14,9.56,20.16,21.65,20.16,9.85,0,16.42-3.58,18.81-10.15l13.29,5.52c-5.38,11.05-15.68,17.32-32.1,17.32-23.59,0-37.48-14.48-37.48-38.82s13.14-38.82,36.43-38.82,34.64,14.93,34.64,36.58c0,2.84-.3,6.27-.6,8.21ZM520.17,67.79h40.17c-1.49-12.54-8.51-19.86-19.71-19.86-11.8,0-18.81,7.02-20.46,19.86Z"/>
    <path class="cls-1" d="M656.04,63.01v48.38h-15.98v-43.3c0-14.78-6.87-19.71-15.98-19.71-9.86,0-20.31,6.27-20.31,23.44v39.57h-15.98V36.73h14.18l.75,12.54c5.08-9.86,14.48-14.04,25.23-14.04,15.83,0,28.07,9.11,28.07,27.77Z"/>
    <path class="cls-1" d="M720.24,106.46c-4.78,4.03-11.8,6.42-19.86,6.42-12.84,0-22.7-5.82-22.84-21.2v-42.41h-14.19v-12.54h14.19v-17.47l15.98-4.48v21.95h26.13v12.54h-26.13v39.72c0,7.32,4.33,10.6,10.9,10.6,5.08,0,8.81-1.79,12.09-4.78l3.73,11.65Z"/>
    <path class="cls-1" d="M721.43,97.2l10.75-9.26c3.88,8.96,12.69,12.39,23.14,12.39s15.98-3.88,15.98-8.96c0-4.63-4.33-7.32-17.32-9.86-22.25-4.18-30.01-10.6-30.01-23.14s11.35-23.14,31.36-23.14c16.57,0,25.98,5.37,31.36,16.87l-11.35,8.36c-3.73-8.96-10.15-12.69-19.86-12.69s-15.53,4.48-15.53,9.11c0,5.38,4.33,8.21,18.37,10.75,21.35,3.88,28.97,10.3,28.97,22.7,0,13.14-11.95,22.55-32.55,22.55-14.48,0-27.03-4.78-33.3-15.68Z"/>
    <path class="cls-1" d="M829.98,76.3l-14.78,15.38v19.71h-15.98V3.14h15.98v70.18l35.69-36.58h18.81l-28.52,29.26,30.31,45.39h-18.51l-22.99-35.09Z"/>
    <path class="cls-1" d="M913.29,120.2c-6.57,17.32-14.18,23.29-27.62,23.29-7.76,0-13.14-1.79-17.62-5.97l4.63-12.24c3.44,4.18,7.62,5.37,12.24,5.37,5.52,0,9.71-2.09,12.99-10.75l3.29-8.06-7.76-18.51-23.29-56.59h17.92l16.42,46.88,4.33,14.04,5.08-15.38,15.53-45.54h16.57l-32.7,83.47ZM927.03,0l-14.78,25.08h-12.24l10.9-25.08h16.13Z"/>
    <path class="cls-1" d="M239.02,255.62h-18.66l-36.58-98.55h17.02l22.99,65.55,5.97,19.56,5.97-19.41,22.99-65.7h16.87l-36.58,98.55Z"/>
    <path class="cls-1" d="M342.49,224.27h-54.65c1.79,13.14,9.56,20.16,21.65,20.16,9.85,0,16.42-3.58,18.81-10.15l13.29,5.52c-5.38,11.05-15.68,17.32-32.1,17.32-23.59,0-37.48-14.48-37.48-38.82s13.14-38.82,36.43-38.82,34.64,14.93,34.64,36.58c0,2.84-.3,6.27-.6,8.21ZM287.99,212.02h40.17c-1.49-12.54-8.51-19.86-19.71-19.86-11.8,0-18.81,7.02-20.46,19.86Z"/>
    <path class="cls-1" d="M371.16,233.82c0,7.32,1.79,9.86,7.76,9.86,3.73,0,5.97-.45,9.86-1.94l-1.79,12.84c-3.29,1.64-8.06,2.54-12.39,2.54-13.29,0-19.41-6.57-19.41-21.05v-88.69h15.98v86.45Z"/>
    <path class="cls-1" d="M460.89,224.27h-54.65c1.79,13.14,9.56,20.16,21.65,20.16,9.85,0,16.42-3.58,18.81-10.15l13.29,5.52c-5.38,11.05-15.68,17.32-32.1,17.32-23.59,0-37.48-14.48-37.48-38.82s13.14-38.82,36.43-38.82,34.64,14.93,34.64,36.58c0,2.84-.3,6.27-.6,8.21ZM406.39,212.02h40.16c-1.49-12.54-8.51-19.86-19.71-19.86-11.8,0-18.81,7.02-20.46,19.86Z"/>
    <path class="cls-1" d="M542.27,207.25v48.38h-15.98v-43.3c0-14.78-6.87-19.71-15.98-19.71-9.86,0-20.31,6.42-20.31,23.59v39.42h-15.98v-108.25h15.98v45.54c4.93-9.26,13.74-13.44,24.19-13.44,15.83,0,28.07,9.11,28.07,27.77Z"/>
    <path class="cls-1" d="M605.72,180.97l-2.54,14.63c-2.09-1.19-5.38-1.94-9.41-1.94-8.96,0-18.81,7.17-18.81,22.4v39.57h-15.98v-74.66h13.59l1.49,13.29c4.03-9.71,11.95-14.78,23.44-14.78,2.99,0,6.12.45,8.21,1.49Z"/>
    <path class="cls-1" d="M681.72,244.57l-1.04,10.75c-2.39,1.05-5.52,1.79-9.26,1.79-8.06,0-13.59-2.99-15.23-11.2-4.63,7.17-14.18,11.2-25.23,11.2-14.04,0-24.34-6.57-24.34-19.56,0-11.5,9.56-20.01,29.12-23.44l18.96-3.44v-3.88c0-8.96-5.52-14.78-15.23-14.78s-16.13,4.03-19.26,13.44l-12.39-6.57c3.58-11.79,15.08-19.41,31.36-19.41,18.66,0,31.51,8.51,31.51,26.43v33.75c0,3.73,1.49,5.52,5.52,5.52,1.94,0,3.88-.15,5.52-.6ZM654.69,230.84v-8.96l-16.27,3.28c-10.15,1.94-15.23,5.38-15.23,11.35,0,5.52,4.18,8.51,11.2,8.51,10,0,20.31-5.23,20.31-14.18Z"/>
    <path class="cls-1" d="M758.32,147.37v108.25h-14.04l-.9-13.44c-4.33,8.81-13.44,14.93-25.23,14.93-20.31,0-33-14.33-33-38.67s12.84-38.97,33.15-38.97c11.05,0,19.56,5.37,24.04,13.59v-45.69h15.98ZM742.34,219.19v-1.79c0-15.53-8.06-24.94-20.6-24.94s-20.61,9.56-20.61,25.83,7.76,25.98,20.61,25.98,20.6-9.41,20.6-25.08Z"/>
  </g>
  <g>
    <polygon class="cls-1" points="45.76 42.53 24.76 42.53 24.76 57.29 60.52 57.29 60.52 2.59 45.76 2.59 45.76 42.53"/>
    <polygon class="cls-1" points="112.52 42.53 90.06 42.53 90.06 13.66 75.3 13.66 75.3 57.29 112.52 57.29 112.52 42.53"/>
    <polygon class="cls-1" points="9.47 86.83 45.76 86.83 45.76 114.29 0 114.29 0 129.06 60.52 129.06 60.52 72.06 9.47 72.06 9.47 86.83"/>
    <polygon class="cls-1" points="90.06 114.29 90.06 86.83 126.35 86.83 126.35 72.06 75.3 72.06 75.3 129.06 135.82 129.06 135.82 114.29 90.06 114.29"/>
    <polygon class="cls-1" points="9.47 158.58 45.76 158.58 45.76 245.11 60.52 245.11 60.52 143.81 9.47 143.81 9.47 158.58"/>
    <polygon class="cls-1" points="75.3 266.08 90.06 266.08 90.06 158.58 127.52 158.58 127.52 143.81 75.3 143.81 75.3 266.08"/>
  </g>
</svg>