<?xml version="1.0" encoding="UTF-8" standalone="no"?>
<svg
   id="Vrstva_1"
   data-name="Vrstva 1"
   viewBox="0 0 272 272.00001"
   version="1.1"
   sodipodi:docname="SV24_favicon_zlute.svg"
   inkscape:version="1.2.2 (732a01da63, 2022-12-09)"
   width="272"
   height="272"
   xmlns:inkscape="http://www.inkscape.org/namespaces/inkscape"
   xmlns:sodipodi="http://sodipodi.sourceforge.net/DTD/sodipodi-0.dtd"
   xmlns="http://www.w3.org/2000/svg"
   xmlns:svg="http://www.w3.org/2000/svg">
  <sodipodi:namedview
     id="namedview59"
     pagecolor="#ffffff"
     bordercolor="#000000"
     borderopacity="0.25"
     inkscape:showpageshadow="2"
     inkscape:pageopacity="0.0"
     inkscape:pagecheckerboard="0"
     inkscape:deskcolor="#d1d1d1"
     showgrid="false"
     inkscape:zoom="1.2790833"
     inkscape:cx="65.281127"
     inkscape:cy="136.03492"
     inkscape:window-width="1920"
     inkscape:window-height="1009"
     inkscape:window-x="-8"
     inkscape:window-y="-8"
     inkscape:window-maximized="1"
     inkscape:current-layer="Vrstva_1" />
  <defs
     id="defs4">
    <style
       id="style2">
      .cls-1 {
        fill: #fabb13;
        stroke-width: 0px;
      }
    </style>
  </defs>
  <g
     id="g56"
     transform="translate(68.090005,1.665)">
    <polygon
       class="cls-1"
       points="60.52,2.59 45.76,2.59 45.76,42.53 24.76,42.53 24.76,57.29 60.52,57.29 "
       id="polygon44" />
    <polygon
       class="cls-1"
       points="75.3,57.29 112.52,57.29 112.52,42.53 90.06,42.53 90.06,13.66 75.3,13.66 "
       id="polygon46" />
    <polygon
       class="cls-1"
       points="0,129.06 60.52,129.06 60.52,72.06 9.47,72.06 9.47,86.83 45.76,86.83 45.76,114.29 0,114.29 "
       id="polygon48" />
    <polygon
       class="cls-1"
       points="75.3,72.06 75.3,129.06 135.82,129.06 135.82,114.29 90.06,114.29 90.06,86.83 126.35,86.83 126.35,72.06 "
       id="polygon50" />
    <polygon
       class="cls-1"
       points="60.52,143.81 9.47,143.81 9.47,158.58 45.76,158.58 45.76,245.11 60.52,245.11 "
       id="polygon52" />
    <polygon
       class="cls-1"
       points="127.52,143.81 75.3,143.81 75.3,266.08 90.06,266.08 90.06,158.58 127.52,158.58 "
       id="polygon54" />
  </g>
</svg>
